<svg width="92" height="86" viewBox="0 0 92 86" fill="none" xmlns="http://www.w3.org/2000/svg">
<path d="M30.528 65.864C36.36 65.864 41.616 64.136 45.864 61.112L49.464 64.352C50.256 65.144 51.264 65.648 52.56 65.648C54.864 65.648 56.736 63.704 56.736 61.4C56.736 59.888 56.088 58.808 55.08 57.944L51.84 55.28C55.08 50.888 56.952 45.488 56.952 39.8V39.656C56.952 25.472 46.152 13.736 30.672 13.736C15.192 13.736 4.248 25.616 4.248 39.8V39.944C4.248 54.128 15.048 65.864 30.528 65.864ZM33.12 50.024L39.384 55.352C36.936 56.792 33.984 57.656 30.672 57.656C20.664 57.656 13.536 49.592 13.536 39.8V39.656C13.536 29.864 20.52 21.872 30.528 21.872C40.536 21.872 47.664 30.008 47.664 39.8V39.944C47.664 43.544 46.8 46.784 45.216 49.52L38.736 43.616C37.728 42.752 36.936 42.32 35.64 42.32C33.336 42.32 31.464 44.264 31.464 46.568C31.464 48.08 32.112 49.16 33.12 50.024Z" fill="url(#paint0_linear_161_213)"/>
<path d="M73.5582 59.672V60.392C73.5582 63.2 75.7182 65.36 78.6702 65.36C81.5502 65.36 83.7102 63.2 83.7102 60.392V59.672C83.7102 56.864 81.5502 54.704 78.6702 54.704C75.7182 54.704 73.5582 56.864 73.5582 59.672Z" fill="#01FF88"/>
<defs>
<linearGradient id="paint0_linear_161_213" x1="0" y1="0" x2="80.7318" y2="72.9638" gradientUnits="userSpaceOnUse">
<stop stop-color="#0467FF"/>
<stop offset="1" stop-color="#59E5FF"/>
</linearGradient>
</defs>
</svg>
