<?xml version="1.0" standalone="no"?>
<!DOCTYPE svg PUBLIC "-//W3C//DTD SVG 20010904//EN"
 "http://www.w3.org/TR/2001/REC-SVG-20010904/DTD/svg10.dtd">
<svg version="1.0" xmlns="http://www.w3.org/2000/svg"
 width="736.000000pt" height="736.000000pt" viewBox="0 0 736.000000 736.000000"
 preserveAspectRatio="xMidYMid meet">
<metadata>
Created by potrace 1.14, written by Peter Selinger 2001-2017
</metadata>
<g transform="translate(0.000000,736.000000) scale(0.100000,-0.100000)"
fill="#000000" stroke="none">
<path d="M2259 6016 c-2 -2 -33 -7 -69 -11 -89 -9 -100 -11 -140 -19 -19 -4
-46 -8 -60 -10 -14 -2 -32 -6 -40 -9 -16 -6 -64 -18 -92 -23 -40 -8 -233 -77
-254 -91 -13 -8 -24 -12 -24 -9 0 10 -195 -91 -263 -136 -32 -21 -63 -38 -68
-38 -5 0 -9 -4 -9 -8 0 -5 -10 -14 -22 -19 -76 -36 -333 -276 -422 -393 -22
-30 -49 -64 -59 -75 -10 -11 -30 -40 -44 -65 -14 -25 -30 -48 -35 -51 -4 -3
-43 -75 -86 -160 -66 -130 -152 -351 -168 -433 -3 -17 -10 -52 -19 -96 -1 -3
-4 -18 -8 -35 -7 -31 -13 -73 -25 -165 -7 -59 -9 -368 -3 -463 3 -32 8 -60 13
-63 5 -3 6 -10 3 -15 -7 -10 18 -154 40 -234 8 -27 17 -61 20 -75 4 -14 9 -32
12 -40 3 -8 7 -21 9 -29 4 -20 43 -119 73 -186 15 -33 34 -75 42 -92 8 -18 17
-33 21 -33 5 0 8 -8 8 -19 0 -10 7 -24 15 -31 8 -7 15 -17 15 -22 0 -14 116
-185 175 -258 119 -148 291 -304 455 -413 100 -66 345 -192 395 -203 6 -1 35
-11 65 -22 47 -18 72 -25 155 -48 42 -11 151 -36 180 -40 165 -24 263 -31 430
-29 171 3 220 6 305 21 14 2 41 7 60 10 64 9 204 45 295 76 102 33 298 118
303 130 2 4 9 8 15 8 7 0 59 29 116 65 l103 65 27 -24 c34 -32 71 -66 166
-151 43 -38 85 -77 94 -86 30 -29 106 -76 136 -84 59 -15 148 -17 194 -4 95
26 181 101 224 197 30 69 29 198 -2 270 -13 28 -27 52 -32 52 -5 0 -9 6 -9 13
0 16 -104 110 -234 212 -21 17 -49 39 -63 51 l-25 21 66 100 c36 56 66 105 66
111 0 6 4 12 8 14 11 4 94 176 123 254 12 32 26 70 32 84 6 14 11 30 12 35 2
6 10 36 20 69 9 32 18 64 19 70 2 6 6 22 9 36 4 14 9 36 11 50 2 14 7 41 11
60 3 19 8 49 10 65 2 17 4 30 5 30 1 0 4 34 7 75 12 143 5 427 -11 501 -5 23
-13 69 -21 117 -7 49 -27 128 -41 165 -7 20 -12 37 -9 37 3 0 -2 17 -11 38 -8
20 -18 48 -20 62 -3 13 -8 29 -13 35 -4 5 -18 37 -31 70 -65 166 -225 424
-340 548 -168 182 -302 293 -485 402 -84 50 -254 134 -279 139 -6 1 -28 10
-50 19 -21 9 -42 17 -47 17 -4 0 -20 5 -36 12 -15 7 -32 13 -38 14 -5 1 -13 3
-17 4 -5 1 -11 3 -15 5 -5 1 -20 5 -34 9 -14 4 -34 9 -45 11 -10 2 -19 4 -19
5 0 1 -11 3 -25 6 -14 2 -50 9 -80 16 -30 6 -68 12 -85 14 -16 1 -30 3 -30 4
0 10 -496 26 -506 16z m321 -657 c0 -4 9 -5 19 -2 26 7 166 -21 266 -53 96
-31 295 -126 320 -154 10 -11 24 -20 32 -20 7 0 13 -4 13 -10 0 -5 4 -10 10
-10 16 0 48 -29 155 -136 55 -55 116 -124 135 -152 19 -29 40 -58 45 -65 30
-37 135 -246 135 -270 0 -7 4 -17 9 -22 16 -18 68 -225 78 -308 2 -23 6 -55 9
-72 6 -43 5 -271 -1 -330 -6 -48 -9 -69 -20 -137 -11 -65 -51 -209 -72 -258
-3 -8 -7 -17 -7 -20 -1 -3 -21 -45 -44 -94 l-43 -89 -31 29 c-18 16 -37 34
-43 39 -7 6 -54 48 -105 95 -51 47 -105 96 -120 110 -15 14 -69 63 -120 110
-189 172 -226 193 -358 192 -149 0 -295 -126 -317 -273 -4 -24 -8 -50 -9 -58
-6 -34 27 -149 54 -191 32 -51 55 -73 200 -195 52 -44 103 -87 114 -97 10 -9
72 -61 137 -115 65 -54 118 -103 119 -109 0 -14 -154 -87 -250 -118 -92 -29
-191 -51 -280 -60 -72 -8 -355 -5 -355 4 0 1 -11 3 -25 6 -237 41 -445 131
-615 268 -66 53 -183 171 -220 221 -17 22 -33 42 -36 45 -27 22 -157 267 -179
337 -6 21 -15 47 -20 58 -11 25 -28 82 -34 115 -3 14 -8 36 -11 50 -3 14 -8
41 -11 60 -2 19 -8 58 -12 85 -9 59 -8 297 2 374 13 105 51 264 78 329 14 32
13 30 23 67 4 17 11 32 14 35 3 3 26 44 50 92 24 47 72 124 106 170 68 90 197
228 215 228 5 0 10 4 10 9 0 5 44 38 98 74 180 119 377 194 561 212 24 2 46 6
48 9 8 7 283 3 283 -5z"/>
<path d="M6289 2746 c-2 -2 -26 -6 -54 -9 -93 -11 -175 -49 -237 -110 -42 -43
-95 -143 -104 -197 -9 -54 -9 -159 -2 -217 19 -140 158 -284 301 -311 63 -12
182 -6 238 12 108 34 207 134 243 244 21 61 28 184 15 260 -23 148 -145 278
-290 311 -62 14 -106 21 -110 17z"/>
</g>
</svg>
